<?xml version="1.0" standalone="no"?>
<!DOCTYPE svg PUBLIC "-//W3C//DTD SVG 20010904//EN"
 "http://www.w3.org/TR/2001/REC-SVG-20010904/DTD/svg10.dtd">
<svg version="1.0" xmlns="http://www.w3.org/2000/svg"
 width="200.000000pt" height="200.000000pt" viewBox="0 0 200.000000 200.000000"
 preserveAspectRatio="xMidYMid meet">

<g transform="translate(0.000000,200.000000) scale(0.100000,-0.100000)"
fill="#000000" stroke="none">
<path d="M0 1000 l0 -1000 1000 0 1000 0 0 1000 0 1000 -1000 0 -1000 0 0
-1000z m1778 199 c-2 -6 -66 -98 -142 -205 l-139 -195 -70 3 -70 3 -37 104
-37 104 -38 -107 c-36 -101 -39 -106 -66 -106 -33 0 -34 4 -15 51 7 19 30 78
50 132 37 96 38 97 70 97 l33 0 48 -127 c26 -71 51 -132 55 -136 4 -5 72 82
151 192 138 193 145 201 177 201 20 0 32 -4 30 -11z m-1374 -129 c59 -22 85
-131 50 -205 -21 -46 -66 -65 -153 -65 l-71 0 0 140 0 140 74 0 c41 0 86 -4
100 -10z m306 -15 c0 -24 -2 -25 -75 -25 l-75 0 0 -30 0 -30 70 0 c68 0 70 -1
70 -25 0 -24 -2 -25 -70 -25 l-70 0 0 -35 0 -35 75 0 c73 0 75 -1 75 -25 l0
-25 -105 0 -105 0 0 140 0 140 105 0 105 0 0 -25z m100 -90 l0 -115 65 0 c63
0 65 -1 65 -25 l0 -25 -100 0 -100 0 0 140 0 140 35 0 35 0 0 -115z m360 90
c0 -23 -4 -25 -45 -25 l-45 0 0 -115 0 -115 -30 0 -30 0 0 115 0 115 -45 0
c-41 0 -45 2 -45 25 l0 25 120 0 120 0 0 -25z m362 8 c23 -21 23 -36 -1 -57
-18 -17 -20 -16 -44 16 -13 18 -27 39 -31 46 -11 19 54 15 76 -5z m152 -210
l38 -53 -40 0 c-35 0 -42 5 -66 40 -26 39 -26 41 -9 65 21 27 20 27 77 -52z"/>
<path d="M282 943 l3 -88 37 -3 c53 -4 88 31 88 88 0 56 -34 90 -90 90 l-41 0
3 -87z"/>
</g>
</svg>
