<?xml version="1.0" standalone="no"?>
<!DOCTYPE svg PUBLIC "-//W3C//DTD SVG 20010904//EN"
 "http://www.w3.org/TR/2001/REC-SVG-20010904/DTD/svg10.dtd">
<svg version="1.0" xmlns="http://www.w3.org/2000/svg"
 width="200.000000pt" height="200.000000pt" viewBox="0 0 200.000000 200.000000"
 preserveAspectRatio="xMidYMid meet">

<g transform="translate(0.000000,200.000000) scale(0.100000,-0.100000)"
fill="#000000" stroke="none">
<path d="M433 1640 c-34 -8 -75 -32 -104 -59 -44 -43 -45 -48 -146 -481 -14
-63 -27 -126 -27 -140 l-1 -25 160 0 c88 0 172 3 187 8 38 10 95 63 117 106
10 20 26 70 35 111 9 41 23 102 31 135 46 193 75 325 75 339 0 14 -18 16 -147
15 -82 -1 -163 -4 -180 -9z m247 -179 c0 -6 -11 -23 -24 -38 -23 -27 -29 -28
-138 -33 l-113 -5 -3 -27 -3 -28 100 0 c66 0 101 -4 101 -11 0 -6 -13 -24 -29
-40 -28 -27 -34 -29 -114 -29 l-84 0 -7 -41 c-8 -47 -53 -99 -86 -99 -25 0
-26 -12 22 192 40 172 34 168 229 168 87 0 149 -4 149 -9z"/>
<path d="M1414 1604 c-18 -14 -18 -15 4 -4 12 6 22 13 22 15 0 8 -5 6 -26 -11z"/>
<path d="M1756 1034 c-28 -28 -15 -95 19 -94 5 0 2 5 -7 11 -26 15 -23 64 4
83 12 9 17 16 11 16 -6 0 -19 -7 -27 -16z"/>
<path d="M1777 1023 c-11 -10 -8 -33 4 -33 7 0 17 -7 23 -15 9 -12 11 -9 12
17 1 18 -1 27 -3 21 -5 -15 -33 -18 -33 -4 0 5 6 12 13 14 6 3 7 6 1 6 -6 1
-14 -2 -17 -6z"/>
<path d="M1843 995 c0 -16 -9 -34 -19 -42 -10 -7 -13 -13 -6 -13 20 0 45 47
34 66 -8 14 -9 12 -9 -11z"/>
<path d="M696 594 c-9 -8 -16 -29 -16 -45 0 -19 -5 -29 -15 -29 -8 0 -15 -7
-15 -15 0 -8 7 -15 15 -15 12 0 15 -16 15 -85 0 -69 3 -85 15 -85 12 0 15 16
15 85 0 78 2 85 20 85 11 0 20 7 20 15 0 8 -9 15 -20 15 -34 0 -24 49 13 63 9
3 17 11 17 17 0 16 -47 12 -64 -6z"/>
<path d="M291 564 c-12 -15 -21 -34 -21 -43 0 -27 29 -60 71 -82 46 -23 55
-39 39 -69 -10 -18 -19 -21 -56 -18 -31 2 -45 -1 -49 -11 -8 -20 -2 -23 49
-23 65 -1 96 22 96 72 0 41 -13 56 -79 92 -54 30 -33 83 31 76 25 -2 34 1 36
15 3 14 -4 17 -47 17 -42 0 -53 -4 -70 -26z"/>
<path d="M813 573 c-7 -3 -13 -16 -13 -29 0 -15 -6 -24 -15 -24 -8 0 -15 -7
-15 -15 0 -8 7 -15 15 -15 12 0 15 -15 15 -73 0 -43 5 -78 12 -85 18 -18 68
-15 68 3 0 8 -9 15 -19 15 -24 0 -31 19 -31 86 0 51 1 54 25 54 16 0 25 6 25
15 0 9 -9 15 -24 15 -20 0 -25 6 -28 28 -2 18 -8 27 -15 25z"/>
<path d="M481 496 c-73 -78 -1 -211 94 -172 58 25 72 130 23 176 -31 28 -88
27 -117 -4z m97 -24 c19 -25 15 -89 -8 -112 -11 -11 -24 -20 -30 -20 -24 0
-50 41 -50 80 0 68 51 98 88 52z"/>
<path d="M900 508 c0 -7 12 -53 27 -101 23 -76 29 -88 47 -85 16 2 24 17 38
66 9 35 19 69 21 75 2 7 15 -23 27 -66 20 -66 26 -78 43 -75 16 2 26 20 43 77
37 120 37 121 16 121 -15 0 -22 -16 -38 -80 -10 -44 -21 -76 -25 -72 -3 4 -15
40 -25 80 -15 62 -21 72 -38 70 -16 -2 -24 -19 -39 -82 -22 -86 -25 -85 -52
17 -11 42 -22 67 -31 67 -8 0 -14 -6 -14 -12z"/>
<path d="M1227 513 c-16 -15 -5 -24 23 -18 44 10 70 -2 70 -31 0 -20 -5 -24
-31 -24 -76 0 -117 -62 -69 -105 21 -19 105 -26 129 -11 6 4 11 38 11 79 0 96
-14 117 -79 117 -26 0 -51 -3 -54 -7z m93 -133 c0 -39 -1 -40 -35 -40 -25 0
-37 6 -46 22 -10 18 -8 24 11 40 12 10 33 18 46 18 21 0 24 -4 24 -40z"/>
<path d="M1407 513 c-4 -3 -7 -48 -7 -100 0 -76 3 -93 15 -93 11 0 15 12 16
43 2 118 3 121 28 127 42 10 37 30 -6 30 -22 0 -43 -3 -46 -7z"/>
<path d="M1545 495 c-53 -52 -22 -171 45 -176 61 -4 90 1 90 16 0 12 -9 13
-44 9 -36 -5 -47 -3 -65 15 -39 39 -31 46 63 56 l58 7 -6 31 c-9 46 -33 67
-78 67 -28 0 -46 -7 -63 -25z m93 -7 c19 -19 14 -45 -10 -52 -44 -11 -78 -7
-78 11 0 41 60 69 88 41z"/>
</g>
</svg>
