<?xml version="1.0" standalone="no"?>
<!DOCTYPE svg PUBLIC "-//W3C//DTD SVG 20010904//EN"
 "http://www.w3.org/TR/2001/REC-SVG-20010904/DTD/svg10.dtd">
<svg version="1.0" xmlns="http://www.w3.org/2000/svg"
 width="200.000000pt" height="200.000000pt" viewBox="0 0 200.000000 200.000000"
 preserveAspectRatio="xMidYMid meet">

<g transform="translate(0.000000,200.000000) scale(0.100000,-0.100000)"
fill="#000000" stroke="none">
<path d="M88 1143 l-78 -4 0 -144 0 -145 45 0 45 0 0 45 0 45 39 0 c57 0 100
19 116 51 32 60 11 119 -51 145 -18 8 -35 13 -36 12 -2 -1 -38 -4 -80 -5z m80
-72 c8 -4 12 -19 10 -32 -2 -20 -10 -25 -40 -27 -37 -3 -38 -3 -38 32 0 33 3
36 28 36 15 0 33 -4 40 -9z"/>
<path d="M1680 1118 c0 -25 3 -28 35 -28 30 0 35 3 35 24 0 20 -6 25 -35 28
-33 4 -35 2 -35 -24z"/>
<path d="M340 1063 c-33 -6 -60 -31 -60 -55 0 -23 54 -25 77 -3 18 18 37 15
41 -7 2 -10 -13 -18 -49 -26 -66 -16 -79 -26 -79 -67 0 -54 54 -79 109 -51 17
9 31 12 31 6 0 -5 19 -10 41 -10 l42 0 -7 53 c-3 28 -6 69 -6 89 0 28 -6 41
-22 52 -27 17 -82 26 -118 19z m70 -137 c0 -19 -26 -38 -46 -34 -27 5 -28 27
-2 37 33 14 48 13 48 -3z"/>
<path d="M608 1054 c-16 -8 -28 -10 -28 -4 0 5 -18 10 -40 10 l-41 0 2 -105 1
-105 39 0 39 0 0 56 c0 64 13 94 40 94 24 0 33 -31 28 -100 l-3 -50 43 0 42 0
0 73 c0 94 -7 115 -41 132 -35 18 -47 18 -81 -1z"/>
<path d="M805 1060 c-31 -10 -55 -34 -55 -57 0 -18 58 -17 76 2 18 17 24 18
43 6 23 -15 4 -29 -55 -41 -43 -9 -58 -17 -66 -36 -28 -61 38 -112 103 -80 16
8 29 10 29 5 0 -5 18 -9 40 -9 l40 0 0 64 c0 83 -8 120 -29 133 -26 16 -92 23
-126 13z m75 -134 c0 -19 -26 -38 -46 -34 -27 5 -28 27 -2 37 33 14 48 13 48
-3z"/>
<path d="M1033 1062 c-33 -10 -63 -39 -63 -60 0 -32 25 -54 76 -67 31 -8 50
-18 52 -29 4 -21 -36 -22 -44 -1 -6 16 -84 22 -84 7 0 -20 33 -52 66 -62 71
-24 144 11 144 69 0 36 -18 51 -78 66 -51 13 -69 35 -28 35 14 0 26 -4 26 -10
0 -5 16 -10 35 -10 28 0 35 4 35 20 0 10 -8 24 -19 29 -26 14 -92 21 -118 13z"/>
<path d="M1262 1059 c-20 -6 -40 -22 -52 -42 -57 -93 25 -200 131 -168 51 15
79 53 79 105 0 50 -21 83 -66 102 -38 16 -46 16 -92 3z m73 -104 c0 -45 -2
-50 -24 -53 -28 -4 -41 12 -41 54 0 36 17 56 45 52 17 -3 20 -11 20 -53z"/>
<path d="M1538 1055 c-16 -9 -28 -11 -28 -5 0 5 -16 10 -35 10 l-35 0 0 -105
0 -105 40 0 39 0 3 72 c3 62 6 73 22 76 27 6 36 -15 36 -85 l0 -63 41 0 41 0
-4 90 c-2 63 -8 94 -18 104 -23 23 -71 28 -102 11z"/>
<path d="M1843 1059 c-45 -13 -73 -53 -73 -104 0 -81 77 -133 152 -102 39 16
74 59 63 77 -3 5 -21 10 -39 10 -26 0 -35 -5 -39 -21 -8 -30 -48 -22 -59 12
-12 36 6 79 32 79 11 0 23 -7 26 -15 4 -9 19 -15 41 -15 30 0 34 3 31 21 -6
44 -77 74 -135 58z"/>
<path d="M1680 955 l0 -105 35 0 35 0 0 105 0 105 -35 0 -35 0 0 -105z"/>
</g>
</svg>
