<?xml version="1.0" standalone="no"?>
<!DOCTYPE svg PUBLIC "-//W3C//DTD SVG 20010904//EN"
 "http://www.w3.org/TR/2001/REC-SVG-20010904/DTD/svg10.dtd">
<svg version="1.0" xmlns="http://www.w3.org/2000/svg"
 width="350.000000pt" height="144.000000pt" viewBox="0 0 350.000000 144.000000"
 preserveAspectRatio="xMidYMid meet">

<g transform="translate(0.000000,144.000000) scale(0.100000,-0.100000)"
fill="#000000" stroke="none">
<path d="M770 1110 l0 -310 188 2 187 3 3 42 c3 46 -16 91 -80 186 -64 94 -81
142 -80 222 0 39 7 90 16 114 9 24 16 45 16 47 0 2 -56 4 -125 4 l-125 0 0
-310z"/>
<path d="M2100 990 c0 -367 0 -369 65 -390 44 -15 80 -4 110 32 l25 30 0 329
0 329 -100 0 -100 0 0 -330z"/>
<path d="M1360 385 c-17 -21 -5 -45 24 -45 27 0 42 26 25 46 -15 18 -33 18
-49 -1z"/>
<path d="M2190 385 c-17 -21 -5 -45 24 -45 29 0 40 24 20 45 -19 19 -28 19
-44 0z"/>
<path d="M3040 385 c-17 -21 -5 -45 24 -45 29 0 40 24 20 45 -19 19 -28 19
-44 0z"/>
<path d="M1470 250 l0 -140 30 0 30 0 0 140 0 140 -30 0 -30 0 0 -140z"/>
<path d="M62 373 c-7 -3 -19 -18 -28 -35 -23 -45 -5 -82 57 -109 54 -25 65
-41 43 -64 -18 -17 -42 -19 -77 -6 -21 8 -26 6 -31 -12 -7 -28 9 -37 70 -37
73 0 106 27 102 84 -3 38 -7 43 -51 67 -65 35 -73 44 -57 64 9 11 26 15 54 13
36 -3 41 0 44 20 3 21 0 22 -55 21 -32 0 -64 -3 -71 -6z"/>
<path d="M1670 280 c0 -105 13 -151 45 -164 9 -3 38 -6 64 -6 38 0 54 5 73 25
31 30 38 63 38 166 l0 79 -30 0 -30 0 0 -93 c0 -107 -14 -140 -58 -135 -39 4
-52 40 -52 141 0 86 0 87 -25 87 l-25 0 0 -100z"/>
<path d="M3183 352 c-15 -2 -23 -10 -23 -23 0 -11 -7 -22 -15 -25 -8 -4 -15
-15 -15 -25 0 -10 7 -19 15 -19 12 0 15 -14 15 -63 0 -73 10 -87 61 -87 32 0
36 3 32 20 -3 11 -11 20 -18 20 -17 0 -25 23 -25 71 0 35 3 39 25 39 33 0 35
37 3 42 -15 2 -25 12 -28 28 -4 19 -10 24 -27 22z"/>
<path d="M295 301 c-39 -16 -60 -51 -60 -98 0 -37 5 -49 28 -69 57 -49 157
-22 172 46 19 86 -60 153 -140 121z m74 -62 c30 -54 -18 -120 -59 -79 -24 24
-26 57 -4 88 20 28 44 25 63 -9z"/>
<path d="M525 301 c-39 -16 -60 -51 -60 -98 0 -37 5 -49 28 -69 57 -49 157
-22 172 46 19 86 -60 153 -140 121z m74 -62 c30 -54 -18 -120 -59 -79 -24 24
-26 57 -4 88 20 28 44 25 63 -9z"/>
<path d="M780 293 c-17 -12 -25 -13 -28 -5 -2 7 -15 12 -28 12 -24 0 -24 -1
-24 -95 l0 -95 30 0 30 0 0 63 c0 73 9 90 41 85 22 -3 24 -8 27 -75 l3 -73 29
0 30 0 0 75 c0 67 -3 79 -25 100 -28 29 -51 31 -85 8z"/>
<path d="M975 299 c-30 -15 -46 -46 -47 -90 -1 -72 52 -116 109 -90 32 15 35
12 20 -19 -11 -21 -20 -25 -59 -24 -37 0 -48 -4 -51 -18 -7 -24 6 -30 62 -30
95 0 111 25 111 173 l0 100 -32 -1 c-18 0 -46 2 -63 4 -16 3 -39 1 -50 -5z
m73 -41 c17 -17 15 -83 -4 -99 -37 -31 -80 41 -50 85 18 28 35 33 54 14z"/>
<path d="M1202 298 c-24 -12 -38 -48 -28 -73 3 -9 21 -22 40 -30 42 -18 50
-29 31 -45 -11 -9 -22 -9 -45 -2 -28 10 -30 9 -30 -14 0 -22 3 -24 53 -24 63
0 90 21 85 67 -2 21 -12 32 -40 46 -48 22 -52 51 -7 45 21 -3 33 0 36 10 12
29 -49 42 -95 20z"/>
<path d="M2014 293 c-13 -13 -19 -14 -22 -5 -2 6 -15 12 -28 12 -24 0 -24 -1
-24 -95 l0 -95 30 0 30 0 0 63 c0 73 9 90 41 85 22 -3 24 -8 27 -75 l3 -73 29
0 30 0 0 75 c0 67 -3 79 -25 100 -28 29 -66 32 -91 8z"/>
<path d="M2533 300 c-26 -11 -53 -59 -53 -95 0 -33 24 -81 45 -89 9 -3 41 -6
71 -6 47 0 54 2 54 20 0 17 -7 20 -44 20 -29 0 -51 6 -62 18 -17 16 -15 17 49
20 l67 3 0 35 c0 65 -61 100 -127 74z m75 -52 c3 -15 -4 -18 -38 -18 -38 0
-40 1 -30 21 14 25 63 23 68 -3z"/>
<path d="M2780 290 c-16 -16 -20 -17 -20 -5 0 9 -9 15 -25 15 -25 0 -25 0 -25
-95 l0 -95 28 0 c26 0 27 2 24 42 -5 58 11 96 43 104 18 4 25 13 25 30 0 30
-23 31 -50 4z"/>
<path d="M2882 298 c-24 -12 -38 -48 -29 -73 4 -8 25 -24 48 -35 37 -20 40
-23 26 -37 -12 -13 -21 -13 -46 -5 -29 10 -31 9 -31 -14 0 -22 3 -24 53 -24
59 0 87 19 87 58 0 24 -10 34 -58 63 -38 23 -33 43 10 37 20 -3 32 0 35 10 12
29 -49 42 -95 20z"/>
<path d="M1358 205 l-3 -95 28 0 27 0 0 95 c0 94 0 95 -24 95 -24 0 -25 -2
-28 -95z"/>
<path d="M2180 205 l0 -95 30 0 30 0 0 95 0 95 -30 0 -30 0 0 -95z"/>
<path d="M2304 208 c31 -87 35 -93 63 -96 22 -2 32 2 38 15 4 10 20 53 36 96
l28 77 -29 0 c-27 0 -31 -5 -45 -52 -8 -28 -15 -58 -15 -66 0 -29 -15 0 -30
56 -14 53 -17 57 -48 60 l-32 3 34 -93z"/>
<path d="M3030 205 l0 -95 30 0 30 0 0 95 0 95 -30 0 -30 0 0 -95z"/>
<path d="M3302 248 c57 -141 56 -137 26 -163 -30 -26 -32 -33 -19 -53 7 -12
13 -11 37 1 34 18 66 71 98 164 13 38 27 76 31 86 6 14 2 17 -24 17 -27 0 -31
-4 -41 -42 -25 -98 -25 -98 -46 -25 -18 65 -20 67 -51 67 l-33 0 22 -52z"/>
</g>
</svg>
